<svg width="161" height="32" viewBox="0 0 161 32" fill="none" xmlns="http://www.w3.org/2000/svg">
<g clip-path="url(#clip0_4_24418)">
<path d="M26.3509 29.7265C25.2183 30.5617 23.7272 30.6902 22.5822 30.1367C22.5822 30.1367 22.2731 30.0205 21.9788 29.6869C21.7217 29.3657 16.1082 22.1941 16.1082 22.1941L16.0835 22.1818C18.0396 22.5278 19.4714 21.5912 20.5767 19.8811C21.6821 18.25 21.645 15.9221 20.5891 14.2911C19.3428 12.5168 16.8847 11.9262 14.8545 12.2104C11.2911 12.712 8.74649 15.8604 7.94775 19.1619C7.13665 22.9281 7.7153 26.4867 8.98883 29.8278C9.28558 30.5345 9.68371 31.2685 10.1709 31.8962C6.41457 30.2652 3.11081 27.2577 1.37485 23.2222C-0.541631 18.8654 -0.502065 13.3792 1.77298 8.95821C3.57571 5.55285 6.75335 2.39214 10.6877 1.0552C14.8149 -0.627705 20.3443 -0.281733 24.3578 1.97945C29.2318 4.40867 32.9213 10.4484 32.9362 15.8455C33.1043 21.4231 30.6339 26.4867 26.3534 29.724L26.3509 29.7265Z" fill="#004685"/>
<path d="M12.8046 31.8344C10.9796 29.8673 9.51321 27.3244 10.631 24.6629C11.6077 22.6316 12.4831 20.5631 12.906 18.2253C13.0742 20.6669 14.5529 22.8515 15.2725 25.1917C15.5421 26.3236 15.5693 27.4925 15.1192 28.6614C14.6444 29.934 13.8704 31.0263 12.9456 32.0025L12.8046 31.8369V31.8344Z" fill="#ED1C2E"/>
</g>
<path d="M160.359 19.024H151.647C151.695 20.08 151.975 20.872 152.487 21.4C152.999 21.912 153.735 22.168 154.695 22.168C155.351 22.168 155.895 22.04 156.327 21.784C156.759 21.528 157.023 21.2 157.119 20.8H160.143C159.807 22.08 159.151 23.056 158.175 23.728C157.215 24.4 155.999 24.736 154.527 24.736C153.247 24.736 152.135 24.472 151.191 23.944C150.247 23.4 149.519 22.64 149.007 21.664C148.511 20.672 148.263 19.52 148.263 18.208C148.263 16.976 148.519 15.864 149.031 14.872C149.559 13.864 150.287 13.08 151.215 12.52C152.159 11.944 153.231 11.656 154.431 11.656C155.711 11.656 156.791 11.952 157.671 12.544C158.567 13.12 159.239 13.92 159.687 14.944C160.151 15.968 160.383 17.128 160.383 18.424L160.359 19.024ZM156.975 16.864C156.815 15.104 155.951 14.224 154.383 14.224C153.599 14.224 152.967 14.456 152.487 14.92C152.023 15.384 151.743 16.032 151.647 16.864H156.975Z" fill="#141414"/>
<path d="M142.912 15.304C142.88 14.824 142.688 14.48 142.336 14.272C141.984 14.048 141.472 13.936 140.8 13.936C140.176 13.936 139.704 14.04 139.384 14.248C139.08 14.44 138.928 14.72 138.928 15.088C138.928 15.376 139.016 15.616 139.192 15.808C139.368 15.984 139.624 16.136 139.96 16.264C140.312 16.392 140.784 16.52 141.376 16.648L142.768 16.96C144.032 17.248 144.968 17.696 145.576 18.304C146.184 18.896 146.488 19.672 146.488 20.632C146.488 21.592 146.232 22.384 145.72 23.008C145.224 23.616 144.56 24.056 143.728 24.328C142.896 24.6 141.968 24.736 140.944 24.736C139.84 24.736 138.864 24.584 138.016 24.28C137.168 23.976 136.496 23.528 136 22.936C135.52 22.328 135.28 21.584 135.28 20.704H138.52C138.536 21.264 138.768 21.696 139.216 22C139.68 22.304 140.264 22.456 140.968 22.456C141.576 22.456 142.08 22.336 142.48 22.096C142.88 21.856 143.08 21.496 143.08 21.016C143.08 20.6 142.896 20.256 142.528 19.984C142.16 19.696 141.576 19.464 140.776 19.288L139.408 18.976C138.496 18.768 137.752 18.512 137.176 18.208C136.616 17.888 136.2 17.504 135.928 17.056C135.656 16.608 135.52 16.064 135.52 15.424C135.52 14.608 135.744 13.92 136.192 13.36C136.64 12.8 137.264 12.376 138.064 12.088C138.864 11.8 139.8 11.656 140.872 11.656C142.504 11.656 143.768 11.968 144.664 12.592C145.576 13.216 146.064 14.12 146.128 15.304H142.912Z" fill="#141414"/>
<path d="M132.797 7.26392V24.3999H129.389V7.26392H132.797Z" fill="#141414"/>
<path d="M118.38 18.8079C118.38 19.9599 118.556 20.7839 118.908 21.2799C119.276 21.7759 119.836 22.0239 120.588 22.0239C121.372 22.0239 121.964 21.7759 122.364 21.2799C122.764 20.7679 122.964 19.9439 122.964 18.8079V11.9919H126.372V24.3999H123.108V22.6719H123.06C122.66 23.3119 122.132 23.8159 121.476 24.1839C120.836 24.5519 120.148 24.7359 119.412 24.7359C117.924 24.7359 116.812 24.3279 116.076 23.5119C115.34 22.6799 114.972 21.4319 114.972 19.7679V11.9919H118.38V18.8079Z" fill="#141414"/>
<path d="M106.932 7.81592C108.164 7.81592 109.212 8.05592 110.076 8.53592C110.94 8.99992 111.58 9.63192 111.996 10.4319C112.428 11.2319 112.644 12.1439 112.644 13.1679C112.644 14.2079 112.428 15.1359 111.996 15.9519C111.564 16.7519 110.916 17.3839 110.052 17.8479C109.188 18.3119 108.132 18.5439 106.884 18.5439H103.092V24.3999H99.324V7.81592H106.932ZM105.924 15.5919C106.98 15.5919 107.756 15.4079 108.252 15.0399C108.764 14.6559 109.02 14.0399 109.02 13.1919C109.02 12.3759 108.772 11.7759 108.276 11.3919C107.796 10.9919 107.028 10.7919 105.972 10.7919H103.092V15.5919H105.924Z" fill="#141414"/>
<path d="M89.074 16.3838V19.3118H82.042V16.3838H89.074Z" fill="#141414"/>
<path d="M67.1677 7.81592C68.1277 7.81592 68.9757 8.01592 69.7117 8.41592C70.4637 8.81592 71.0397 9.36792 71.4397 10.0719C71.8557 10.7599 72.0637 11.5359 72.0637 12.3999C72.0637 13.1199 71.9357 13.7839 71.6797 14.3919C71.4397 14.9839 71.1037 15.4799 70.6717 15.8799C70.2397 16.2639 69.7517 16.5199 69.2077 16.6479V16.6959C69.8957 16.8719 70.4157 17.1759 70.7677 17.6079C71.1197 18.0239 71.4157 18.7119 71.6557 19.6719C71.8957 20.6319 72.1837 22.2079 72.5197 24.3999H68.8477C68.6397 22.9279 68.4557 21.7999 68.2957 21.0159C68.1357 20.2319 67.9837 19.6879 67.8397 19.3839C67.6957 19.0639 67.5357 18.8079 67.3597 18.6159C66.9277 18.1999 66.3197 17.9919 65.5357 17.9919H61.9357V24.3999H58.1677V7.81592H67.1677ZM65.8477 15.3039C66.6317 15.3039 67.2317 15.1279 67.6477 14.7759C68.0797 14.4079 68.2957 13.8159 68.2957 12.9999C68.2957 12.2159 68.0877 11.6479 67.6717 11.2959C67.2557 10.9439 66.6317 10.7679 65.7997 10.7679H61.9357V15.3039H65.8477Z" fill="#141414"/>
<path d="M49.9412 7.81592C50.9012 7.81592 51.7492 8.01592 52.4852 8.41592C53.2372 8.81592 53.8132 9.36792 54.2132 10.0719C54.6292 10.7599 54.8372 11.5359 54.8372 12.3999C54.8372 13.1199 54.7092 13.7839 54.4532 14.3919C54.2132 14.9839 53.8772 15.4799 53.4452 15.8799C53.0132 16.2639 52.5252 16.5199 51.9812 16.6479V16.6959C52.6692 16.8719 53.1892 17.1759 53.5412 17.6079C53.8932 18.0239 54.1892 18.7119 54.4292 19.6719C54.6692 20.6319 54.9572 22.2079 55.2932 24.3999H51.6212C51.4132 22.9279 51.2292 21.7999 51.0692 21.0159C50.9092 20.2319 50.7572 19.6879 50.6132 19.3839C50.4692 19.0639 50.3092 18.8079 50.1332 18.6159C49.7012 18.1999 49.0932 17.9919 48.3092 17.9919H44.7092V24.3999H40.9412V7.81592H49.9412ZM48.6212 15.3039C49.4052 15.3039 50.0052 15.1279 50.4212 14.7759C50.8532 14.4079 51.0692 13.8159 51.0692 12.9999C51.0692 12.2159 50.8612 11.6479 50.4452 11.2959C50.0292 10.9439 49.4052 10.7679 48.5732 10.7679H44.7092V15.3039H48.6212Z" fill="#141414"/>
<defs>
<clipPath id="clip0_4_24418">
<rect width="32.9412" height="32" fill="white"/>
</clipPath>
</defs>
</svg>
