<svg width="16" height="16" viewBox="0 0 16 16" fill="none" xmlns="http://www.w3.org/2000/svg">
<path d="M5.42383 2.0835H10.5762C13.1574 2.0835 15.25 4.17608 15.25 6.75732C15.25 6.77967 15.2502 6.80258 15.25 6.82666C15.2422 7.63038 15.098 8.24018 14.835 8.76123C14.5698 9.28656 14.159 9.77085 13.5449 10.2896C12.925 10.8131 12.1254 11.3496 11.1045 11.9917C10.3912 12.4403 9.54782 12.9538 8.61328 13.5356C8.61261 12.3732 7.67133 11.4313 6.50879 11.4312H5.42383C2.84259 11.4312 0.750054 9.33846 0.75 6.75732C0.75 4.17605 2.84255 2.0835 5.42383 2.0835Z" stroke="#666666" stroke-width="1.5" stroke-miterlimit="10" stroke-linecap="round" stroke-linejoin="round"/>
</svg>
