<svg width="24" height="24" viewBox="0 0 24 24" fill="none" xmlns="http://www.w3.org/2000/svg">
<path d="M16.0459 2.70032C18.9921 2.70039 21.0588 3.56549 22.252 5.422C23.3622 7.14963 23.5 9.47933 23.5 11.4552C23.5 14.0012 22.8446 16.0794 21.5186 17.5988C19.9924 19.3473 17.6948 20.21 14.7451 20.2101C12.9384 20.2101 10.8778 19.8704 8.98633 19.2716C7.82302 20.6848 6.10187 21.5108 4.25195 21.5109H1.95703L3.58008 19.8888C4.2398 19.2291 4.60254 18.3531 4.60254 17.42V17.2277C2.12679 15.6052 0.7003 13.5787 0.700195 11.4552C0.700195 9.04682 2.76526 6.80375 6.27441 5.08313C9.27039 3.61408 13.0091 2.70032 16.0459 2.70032ZM16.0459 4.60071C13.2963 4.60071 9.86684 5.43816 7.11133 6.78918C5.64547 7.50793 4.50817 8.30349 3.74219 9.11145C2.97458 9.92122 2.60059 10.7205 2.60059 11.4552C2.60071 12.9199 3.75866 14.5074 6.04395 15.8898L6.50293 16.1671V17.42C6.50293 18.0054 6.4103 18.5773 6.23145 19.1183C6.86923 18.7793 7.42171 18.2752 7.8291 17.6378L8.2373 16.9991L8.9502 17.254C10.8247 17.9251 12.9397 18.3097 14.7451 18.3097C17.6297 18.3096 19.3202 17.3643 20.3008 16.0743C21.293 14.7689 21.5986 13.0574 21.5986 11.4552C21.5986 10.5646 21.5699 9.63152 21.4346 8.75696C21.2989 7.88079 21.0594 7.0824 20.6533 6.45032C19.862 5.21891 18.4441 4.60077 16.0459 4.60071ZM13.1455 13.8302C13.4833 13.8303 13.7727 13.9553 14.0127 14.2042C14.2615 14.4443 14.3857 14.7336 14.3857 15.0714C14.3857 15.4091 14.2614 15.7024 14.0127 15.9513C13.7727 16.1913 13.4833 16.3116 13.1455 16.3116C12.8075 16.3116 12.5137 16.1914 12.2646 15.9513C12.0247 15.7023 11.9043 15.4092 11.9043 15.0714C11.9043 14.7335 12.0245 14.4444 12.2646 14.2042C12.5137 13.9552 12.8075 13.8302 13.1455 13.8302ZM12.8779 7.00012C13.4915 7.00012 14.0298 7.06219 14.4922 7.18665C14.9636 7.30227 15.3156 7.45397 15.5469 7.64075C15.6713 8.13864 15.7334 8.63221 15.7334 9.12122C15.7334 10.0017 15.4529 10.7936 14.8926 11.4962C14.3412 12.1987 13.7362 12.7141 13.0781 13.0431L12.3184 12.1095C12.9763 11.6649 13.4211 11.1981 13.6523 10.7091C13.8925 10.211 14.0127 9.67676 14.0127 9.10754C13.061 9.10754 12.2558 9.25925 11.5977 9.56165L11.1309 7.25305C11.6821 7.08417 12.2645 7.00016 12.8779 7.00012Z" fill="white"/>
</svg>
