<svg width="13" height="13" viewBox="0 0 13 13" fill="none" xmlns="http://www.w3.org/2000/svg">
<g clip-path="url(#clip0_2_12080)">
<path d="M1.96429 6.29758H10.5796L7.98655 3.70457C7.93976 3.65938 7.90244 3.60532 7.87677 3.54556C7.85109 3.48579 7.83758 3.4215 7.83701 3.35646C7.83645 3.29141 7.84884 3.2269 7.87347 3.16669C7.89811 3.10649 7.93448 3.05179 7.98048 3.00579C8.02648 2.95979 8.08118 2.92342 8.14138 2.89879C8.20159 2.87415 8.2661 2.86176 8.33114 2.86232C8.39619 2.86289 8.46048 2.8764 8.52025 2.90208C8.58001 2.92775 8.63407 2.96507 8.67926 3.01186L12.1085 6.44112C12.2004 6.53299 12.252 6.65757 12.252 6.78748C12.252 6.91738 12.2004 7.04196 12.1085 7.13383L8.67926 10.5631C8.58687 10.6523 8.46312 10.7017 8.33467 10.7006C8.20622 10.6995 8.08335 10.6479 7.99252 10.5571C7.90169 10.4663 7.85017 10.3434 7.84905 10.215C7.84794 10.0865 7.89731 9.96277 7.98655 9.87038L10.5796 7.27737H1.96429C1.83436 7.27737 1.70975 7.22576 1.61788 7.13388C1.52601 7.04201 1.47439 6.9174 1.47439 6.78748C1.47439 6.65755 1.52601 6.53294 1.61788 6.44107C1.70975 6.3492 1.83436 6.29758 1.96429 6.29758Z" fill="white"/>
</g>
<defs>
<clipPath id="clip0_2_12080">
<rect width="11.7575" height="11.7575" fill="white" transform="matrix(-1 0 0 1 12.7419 0.908691)"/>
</clipPath>
</defs>
</svg>
