<svg width="16" height="16" viewBox="0 0 16 16" fill="none" xmlns="http://www.w3.org/2000/svg">
<g clip-path="url(#clip0_2_12221)">
<path fill-rule="evenodd" clip-rule="evenodd" d="M0.133301 7.48797C0.133301 6.78997 0.437069 6.10636 0.968372 5.63578L6.32828 0.771876C7.31773 -0.0795577 8.6822 -0.0795577 9.67166 0.771876L15.0303 5.63475L15.0332 5.6372C15.562 6.09046 15.8666 6.78867 15.8666 7.48797V13.3245C15.7884 14.7959 14.7202 15.8666 13.36 15.8666H2.63997C1.27516 15.8666 0.133301 14.7119 0.133301 13.328V7.48797ZM7.20601 1.77703L7.19773 1.78254L1.83734 6.6469C1.54547 6.84778 1.46663 7.22584 1.46663 7.56797V13.408C1.46663 14.039 2.00372 14.5973 2.63997 14.5973H13.28C13.9149 14.5973 14.4533 14.0563 14.4533 13.408V7.56797C14.4533 7.22304 14.2881 6.96011 14.1391 6.7228L14.113 6.6813L14.1032 6.66564L8.73186 1.7913C8.54127 1.60229 8.26532 1.51463 7.99997 1.51463C7.72873 1.51463 7.46343 1.60542 7.20601 1.77703Z" fill="black" fill-opacity="0.65"/>
</g>
<defs>
<clipPath id="clip0_2_12221">
<rect width="16" height="16" fill="white"/>
</clipPath>
</defs>
</svg>
