<svg width="16" height="16" viewBox="0 0 16 16" fill="none" xmlns="http://www.w3.org/2000/svg">
<g clip-path="url(#clip0_2_12118)">
<mask id="path-1-inside-1_2_12118" fill="white">
<path d="M3.73335 15.0664H1.33334C0.6 15.0664 0 14.4664 0 13.7331V8.39968C0 7.66634 0.6 7.06637 1.33334 7.06637H3.73335"/>
</mask>
<path d="M3.73335 13.5664C4.56177 13.5664 5.23335 14.238 5.23335 15.0664C5.23335 15.8948 4.56177 16.5664 3.73335 16.5664V13.5664ZM3.73335 5.56637C4.56177 5.56637 5.23335 6.23794 5.23335 7.06637C5.23335 7.89479 4.56177 8.56637 3.73335 8.56637V5.56637ZM3.73335 15.0664V16.5664H1.33334V15.0664V13.5664H3.73335V15.0664ZM1.33334 15.0664V16.5664C-0.228458 16.5664 -1.5 15.2948 -1.5 13.7331H0H1.5C1.5 13.6825 1.47798 13.6397 1.45234 13.6141C1.42669 13.5884 1.38386 13.5664 1.33334 13.5664V15.0664ZM0 13.7331H-1.5V8.39968H0H1.5V13.7331H0ZM0 8.39968H-1.5C-1.5 6.83787 -0.228385 5.56637 1.33334 5.56637V7.06637V8.56637C1.38381 8.56637 1.42664 8.54437 1.45231 8.5187C1.47799 8.49302 1.5 8.45017 1.5 8.39968H0ZM1.33334 7.06637V5.56637H3.73335V7.06637V8.56637H1.33334V7.06637Z" fill="#666666" mask="url(#path-1-inside-1_2_12118)"/>
<path d="M6.61719 4.39941C6.61719 4.52703 6.58451 4.65221 6.52344 4.7627L6.45215 4.86816L4.4834 7.33008V14.3164H12C12.201 14.3164 12.4772 14.2388 12.752 14.0771C12.9578 13.956 13.1228 13.8117 13.2334 13.6729L13.3252 13.5361L14.6973 11.0674C14.8344 10.8205 14.9764 10.4444 15.084 10.0293C15.1916 9.61387 15.25 9.21511 15.25 8.93262V7.33301L15.2383 7.2168C15.1835 6.95229 14.9463 6.75013 14.667 6.75H9.59961C9.18571 6.74976 8.84979 6.41391 8.84961 6V2C8.84961 1.68081 8.58568 1.41602 8.2666 1.41602H7.2002C6.88109 1.41602 6.61719 1.68084 6.61719 2V4.39941Z" stroke="#666666" stroke-width="1.5" stroke-miterlimit="10" stroke-linecap="round" stroke-linejoin="round"/>
</g>
<defs>
<clipPath id="clip0_2_12118">
<rect width="16" height="16" fill="white"/>
</clipPath>
</defs>
</svg>
