<svg width="24" height="24" viewBox="0 0 24 24" fill="none" xmlns="http://www.w3.org/2000/svg">
<path d="M10 24C7.93309 24 6.25 22.318 6.25 20.25C6.25 19.836 6.586 19.5 7 19.5C7.414 19.5 7.75 19.836 7.75 20.25C7.75 21.4911 8.76002 22.5 10 22.5C11.24 22.5 12.25 21.4911 12.25 20.25C12.25 19.836 12.586 19.5 13 19.5C13.414 19.5 13.75 19.836 13.75 20.25C13.75 22.318 12.0671 24 10 24Z" fill="black" fill-opacity="0.65"/>
<path d="M18.2499 21H1.74994C0.784969 21 3.3234e-07 20.215 3.3234e-07 19.2501C-0.000155467 18.9973 0.0544688 18.7475 0.160112 18.5179C0.265755 18.2883 0.419907 18.0843 0.611954 17.92C0.637032 17.898 0.663985 17.878 0.691969 17.8599C2.15991 16.5789 3 14.736 3 12.7899V9.99994C3 6.14006 6.141 3 9.99994 3C10.16 3 10.333 3.00291 10.4931 3.03C10.9019 3.09797 11.178 3.48506 11.1099 3.89297C11.042 4.30097 10.6479 4.57711 10.247 4.50895C10.167 4.49597 10.0791 4.5 9.99994 4.5C6.96806 4.5 4.5 6.96698 4.5 9.99994V12.7899C4.5 15.206 3.44091 17.4921 1.59703 19.0609C1.58203 19.073 1.56905 19.084 1.55292 19.095C1.51818 19.1391 1.49951 19.1938 1.5 19.2501C1.5 19.3859 1.61409 19.5 1.74994 19.5H18.2499C18.386 19.5 18.5001 19.3859 18.5001 19.2501C18.5001 19.1799 18.474 19.129 18.4461 19.095C18.4311 19.084 18.418 19.073 18.403 19.0609C16.558 17.491 15.5001 15.206 15.5001 12.7899V11.7001C15.5001 11.2861 15.8361 10.9501 16.2501 10.9501C16.6641 10.9501 17.0001 11.2861 17.0001 11.7001V12.7899C17.0001 14.7371 17.841 16.581 19.311 17.863C19.338 17.881 19.364 17.9001 19.3879 17.9211C19.5801 18.0851 19.7344 18.2888 19.84 18.5183C19.9457 18.7478 20.0003 18.9974 20.0001 19.2501C20.0001 20.215 19.2151 21 18.2499 21Z" fill="black" fill-opacity="0.65"/>
<path d="M17.0001 9.99994C14.2431 9.99994 12 7.75706 12 5.00006C12 2.24306 14.2431 0 17.0001 0C19.7571 0 21.9999 2.24306 21.9999 5.00006C21.9999 7.75706 19.7571 9.99994 17.0001 9.99994ZM17.0001 1.5C15.0699 1.5 13.5 3.06994 13.5 5.00006C13.5 6.93 15.0699 8.49994 17.0001 8.49994C18.93 8.49994 20.4999 6.93 20.4999 5.00006C20.4999 3.06994 18.93 1.5 17.0001 1.5Z" fill="#FF0000"/>
<circle cx="17" cy="5" r="4" fill="#FF0000"/>
</svg>
