<svg width="24" height="24" viewBox="0 0 24 24" fill="none" xmlns="http://www.w3.org/2000/svg">
<path fill-rule="evenodd" clip-rule="evenodd" d="M16.0459 2.69971C13.0091 2.69971 9.27059 3.61366 6.2746 5.08272C2.76544 6.80335 0.700195 9.04641 0.700195 11.4548C0.700195 13.5784 2.1267 15.6051 4.60254 17.2275V17.4199C4.60254 18.3529 4.23983 19.2285 3.5801 19.8882L1.95767 21.5106H4.25215C6.10213 21.5106 7.82361 20.6851 8.98696 19.2719C10.8784 19.8707 12.9384 20.2099 14.7451 20.2099C17.695 20.2099 19.9924 19.3471 21.5187 17.5985C22.8448 16.0791 23.5002 14.0009 23.5002 11.4548C23.5002 9.47891 23.3628 7.1499 22.2526 5.42227C21.0594 3.56539 18.9925 2.69971 16.0459 2.69971ZM7.11144 6.78937C9.86701 5.43825 13.2962 4.60049 16.0459 4.60049C18.4443 4.60049 19.8622 5.21836 20.6535 6.44983C21.0597 7.08196 21.2988 7.88023 21.4345 8.75654C21.5699 9.63119 21.5994 10.5641 21.5994 11.4548C21.5994 13.0571 21.2932 14.7687 20.3008 16.0743C19.3202 17.3643 17.6299 18.3091 14.7451 18.3091C12.9397 18.3091 10.8251 17.9253 8.95062 17.2542L8.23737 16.9989L7.82947 17.6372C7.42206 18.2747 6.86959 18.7788 6.2317 19.1179C6.41056 18.5769 6.50332 18.0052 6.50332 17.4198V16.167L6.04479 15.8897C3.75911 14.5072 2.60098 12.9196 2.60098 11.4548C2.60098 10.72 2.97516 9.92099 3.74294 9.11113C4.50892 8.30317 5.64558 7.50812 7.11144 6.78937Z" fill="white"/>
</svg>
