<svg width="25" height="24" viewBox="0 0 25 24" fill="none" xmlns="http://www.w3.org/2000/svg">
<g clip-path="url(#clip0_2_12302)">
<path fill-rule="evenodd" clip-rule="evenodd" d="M3.72935 1.71487C3.72935 0.824688 4.45385 0.100586 5.34364 0.100586H19.0579C19.9477 0.100586 20.6722 0.824688 20.6722 1.71487V3.52916H22.4865C23.3763 3.52916 24.1008 4.25326 24.1008 5.14344V9.42916C24.1008 11.7369 22.2228 13.6149 19.9151 13.6149H18.9918L18.9618 13.6547C17.574 15.4958 15.462 16.7597 13.048 17.0004L12.9579 17.0094V18.9577H15.6294C16.9921 18.9577 18.1008 20.0665 18.1008 21.4292V23.1434C18.1008 23.5616 17.7622 23.9006 17.3436 23.9006H7.05792C6.6394 23.9006 6.30078 23.5616 6.30078 23.1434V21.4292C6.30078 20.0665 7.40951 18.9577 8.77221 18.9577H11.4436V17.0094L11.3536 17.0004C8.93959 16.7597 6.82758 15.4958 5.43978 13.6547L5.40977 13.6149H4.4865C2.1788 13.6149 0.300781 11.7369 0.300781 9.42916V5.14344C0.300781 4.25326 1.02528 3.52916 1.91507 3.52916H3.72935V1.71487ZM19.1579 1.61487H5.24364V8.57201C5.24364 12.4083 8.36448 15.5292 12.2008 15.5292C16.0371 15.5292 19.1579 12.4083 19.1579 8.57201V1.61487ZM3.72935 5.04344H1.81507V9.42916C1.81507 10.8521 2.93534 12.0069 4.33751 12.0859L4.49997 12.095L4.43475 11.9459C3.96931 10.882 3.72914 9.73328 3.72935 8.57201V5.04344ZM22.5865 5.04344H20.6722V8.57201C20.6724 9.73327 20.4323 10.882 19.967 11.9459L19.9018 12.095L20.0643 12.0859C21.4662 12.0069 22.5865 10.852 22.5865 9.42916V5.04344ZM8.77221 20.472C8.24402 20.472 7.81507 20.9015 7.81507 21.4292V22.3863H16.5865V21.4292C16.5865 20.9015 16.1575 20.472 15.6294 20.472H8.77221Z" fill="white"/>
</g>
<defs>
<clipPath id="clip0_2_12302">
<rect width="24" height="24" fill="white" transform="translate(0.200195)"/>
</clipPath>
</defs>
</svg>
