<svg width="17" height="16" viewBox="0 0 17 16" fill="none" xmlns="http://www.w3.org/2000/svg">
<g clip-path="url(#clip0_2_12112)">
<path fill-rule="evenodd" clip-rule="evenodd" d="M11.364 1.80029C9.33947 1.80029 6.84714 2.40959 4.84981 3.38897C2.51038 4.53605 1.13354 6.03143 1.13354 7.63701C1.13354 9.05273 2.08455 10.4039 3.73511 11.4855V11.6137C3.73511 12.2357 3.4933 12.8195 3.05348 13.2593L1.97186 14.3409H3.50151C4.73483 14.3409 5.88249 13.7906 6.65805 12.8484C7.91903 13.2476 9.29237 13.4737 10.4968 13.4737C12.4634 13.4737 13.995 12.8986 15.0125 11.7328C15.8966 10.7199 16.3335 9.33444 16.3335 7.63701C16.3335 6.31976 16.2419 4.76709 15.5018 3.61534C14.7064 2.37741 13.3284 1.80029 11.364 1.80029ZM5.40771 4.52674C7.24475 3.62599 9.53087 3.06748 11.364 3.06748C12.963 3.06748 13.9082 3.4794 14.4357 4.30037C14.7065 4.7218 14.866 5.25398 14.9564 5.83818C15.0467 6.42129 15.0664 7.04324 15.0664 7.63701C15.0664 8.70525 14.8622 9.84631 14.2006 10.7167C13.5469 11.5767 12.42 12.2065 10.4968 12.2065C9.29324 12.2065 7.88348 11.9507 6.63383 11.5033L6.15833 11.3331L5.8864 11.7586C5.61479 12.1836 5.24647 12.5197 4.82122 12.7457C4.94046 12.3851 5.0023 12.004 5.0023 11.6137V10.7785L4.69661 10.5936C3.17282 9.67199 2.40073 8.61358 2.40073 7.63701C2.40073 7.14719 2.65019 6.61448 3.16204 6.07458C3.67269 5.53594 4.43047 5.0059 5.40771 4.52674Z" fill="#1ECCB0"/>
</g>
<defs>
<clipPath id="clip0_2_12112">
<rect width="16" height="16" fill="white" transform="translate(0.666748)"/>
</clipPath>
</defs>
</svg>
