<svg width="25" height="24" viewBox="0 0 25 24" fill="none" xmlns="http://www.w3.org/2000/svg">
<path fill-rule="evenodd" clip-rule="evenodd" d="M15.6982 12.4412C15.7552 12.7734 15.6186 13.1091 15.3459 13.3072C15.0733 13.5053 14.7118 13.5315 14.4134 13.3746L12.3858 12.3086L10.3582 13.3746C10.0599 13.5315 9.69835 13.5053 9.42567 13.3072C9.15299 13.1091 9.01643 12.7734 9.07341 12.4412L9.46069 10.1833L7.82028 8.58433C7.57893 8.34906 7.49207 7.99718 7.59622 7.67662C7.70037 7.35607 7.97748 7.12245 8.31103 7.07398L10.578 6.74458L11.5918 4.69037C11.741 4.38812 12.0488 4.19677 12.3858 4.19677C12.7229 4.19677 13.0307 4.38812 13.1799 4.69037L14.1937 6.74458L16.4606 7.07398C16.7942 7.12245 17.0713 7.35607 17.1754 7.67662C17.2796 7.99717 17.1927 8.34906 16.9514 8.58432L15.311 10.1834L15.6982 12.4412ZM11.2848 10.0239L11.1222 10.9722L11.9738 10.5245C12.2317 10.3888 12.5399 10.3888 12.7979 10.5245L13.6495 10.9722L13.4869 10.0239C13.4376 9.73665 13.5328 9.44357 13.7415 9.24015L14.4305 8.56854L13.4783 8.43019C13.1899 8.38828 12.9406 8.20714 12.8116 7.94579L12.3858 7.08304L11.96 7.94579C11.8311 8.20714 11.5817 8.38828 11.2933 8.43019L10.3412 8.56854L11.0302 9.24014C11.2389 9.44357 11.3341 9.73667 11.2848 10.0239Z" fill="white"/>
<path fill-rule="evenodd" clip-rule="evenodd" d="M12.3858 18.4197C12.0538 18.4197 11.7259 18.4021 11.403 18.3677L9.15284 23.4717C9.01076 23.794 8.69119 24.0014 8.33898 24C7.98677 23.9985 7.66891 23.7885 7.52948 23.4651L6.36219 20.7573L3.57009 21.7054C3.23745 21.8183 2.8695 21.7239 2.63229 21.4648C2.39508 21.2057 2.33346 20.8309 2.47526 20.5095L5.02485 14.7304C3.87818 13.1975 3.1991 11.2945 3.1991 9.23289C3.1991 4.16558 7.30578 0 12.3858 0C17.4659 0 21.5726 4.16558 21.5726 9.23289C21.5726 11.2945 20.8935 13.1975 19.7468 14.7304L22.2964 20.5095C22.4382 20.8309 22.3766 21.2057 22.1394 21.4648C21.9022 21.7239 21.5342 21.8183 21.2016 21.7054L18.4095 20.7573L17.2422 23.4651C17.1028 23.7885 16.7849 23.9985 16.4327 24C16.0805 24.0014 15.7609 23.794 15.6188 23.4717L13.3687 18.3677C13.0458 18.4021 12.7179 18.4197 12.3858 18.4197ZM6.33579 16.1463C7.28228 16.9753 8.40048 17.613 9.63008 17.9992L8.35171 20.8989L7.66479 19.3054C7.48202 18.8815 7.00415 18.6691 6.56696 18.8175L4.90897 19.3805L6.33579 16.1463ZM15.1416 17.9992L16.42 20.8989L17.1069 19.3054C17.2897 18.8815 17.7675 18.6691 18.2047 18.8175L19.8627 19.3805L18.4359 16.1463C17.4894 16.9753 16.3712 17.613 15.1416 17.9992ZM4.97004 9.23289C4.97004 13.3285 8.29022 16.6487 12.3858 16.6487C16.4815 16.6487 19.8016 13.3285 19.8016 9.23289C19.8016 5.13086 16.4751 1.77095 12.3858 1.77095C8.29659 1.77095 4.97004 5.13086 4.97004 9.23289Z" fill="white"/>
</svg>
