<svg width="16" height="16" viewBox="0 0 16 16" fill="none" xmlns="http://www.w3.org/2000/svg">
<path fill-rule="evenodd" clip-rule="evenodd" d="M0.666504 4.10811C0.666504 3.01857 1.09932 1.97366 1.86974 1.20324C2.64016 0.432817 3.68507 0 4.77461 0H13.4233C14.2596 0 14.9368 0.677189 14.9368 1.51351V14.4865C14.9368 14.8879 14.7773 15.2729 14.4935 15.5567C14.2096 15.8405 13.8247 16 13.4233 16H3.90975C3.04959 16 2.22465 15.6583 1.61643 15.0501C1.0082 14.4419 0.666504 13.6169 0.666504 12.7568V4.10811ZM13.6395 1.51351V9.51351H3.90975C3.1798 9.51351 2.50607 9.75481 1.9638 10.1622V4.10811C1.9638 3.36263 2.25994 2.64769 2.78707 2.12056C3.3142 1.59344 4.02914 1.2973 4.77461 1.2973H7.5491C7.32108 3.01237 7.34176 4.75137 7.6105 6.46054L7.66499 6.80389C7.68395 6.92429 7.73645 7.03691 7.81647 7.12884C7.89649 7.22077 8.00079 7.2883 8.11742 7.32369C8.23405 7.35907 8.35828 7.36089 8.4759 7.32891C8.59351 7.29694 8.69973 7.23248 8.7824 7.14292L9.9638 5.86292L11.1452 7.14292C11.2279 7.23248 11.3341 7.29694 11.4517 7.32891C11.5693 7.36089 11.6936 7.35907 11.8102 7.32369C11.9268 7.2883 12.0311 7.22077 12.1111 7.12884C12.1912 7.03691 12.2437 6.92429 12.2626 6.80389L12.3171 6.46054C12.5859 4.75138 12.6066 3.01237 12.3785 1.2973H13.4233C13.4806 1.2973 13.5356 1.32008 13.5761 1.36063C13.6167 1.40117 13.6395 1.45617 13.6395 1.51351ZM11.0691 1.2973H8.8585C8.67085 2.60642 8.63949 3.93321 8.7651 5.24973L9.32813 4.63914C9.40911 4.55135 9.50741 4.48129 9.61681 4.43337C9.72622 4.38545 9.84436 4.36071 9.9638 4.36071C10.0832 4.36071 10.2014 4.38545 10.3108 4.43337C10.4202 4.48129 10.5185 4.55135 10.5995 4.63914L11.1625 5.24973C11.2881 3.93321 11.2568 2.60642 11.0691 1.2973ZM3.90975 10.8108H13.6395V14.4865C13.6395 14.5438 13.6167 14.5988 13.5761 14.6394C13.5356 14.6799 13.4806 14.7027 13.4233 14.7027H3.90975C3.39365 14.7027 2.89869 14.4977 2.53376 14.1327C2.16882 13.7678 1.9638 13.2729 1.9638 12.7568C1.9638 12.2407 2.16882 11.7457 2.53376 11.3808C2.89869 11.0158 3.39365 10.8108 3.90975 10.8108Z" fill="#0078AD"/>
</svg>
