<svg width="25" height="24" viewBox="0 0 25 24" fill="none" xmlns="http://www.w3.org/2000/svg">
<path fill-rule="evenodd" clip-rule="evenodd" d="M1.6001 6.16216C1.6001 4.52785 2.24932 2.96049 3.40495 1.80486C4.56058 0.649226 6.12795 0 7.76226 0H20.7352C21.9897 0 23.0055 1.01578 23.0055 2.27027V21.7297C23.0055 22.3318 22.7663 22.9093 22.3406 23.3351C21.9148 23.7608 21.3373 24 20.7352 24H6.46496C5.17472 24 3.93732 23.4875 3.02498 22.5751C2.11264 21.6628 1.6001 20.4254 1.6001 19.1351V6.16216ZM21.0596 2.27027V14.2703H6.46496C5.37004 14.2703 4.35945 14.6322 3.54604 15.2432V6.16216C3.54604 5.04395 3.99025 3.97154 4.78094 3.18085C5.57164 2.39015 6.64405 1.94595 7.76226 1.94595H11.924C11.582 4.51856 11.613 7.12706 12.0161 9.69081L12.0978 10.2058C12.1263 10.3864 12.205 10.5554 12.325 10.6933C12.4451 10.8312 12.6015 10.9325 12.7765 10.9855C12.9514 11.0386 13.1378 11.0413 13.3142 10.9934C13.4906 10.9454 13.6499 10.8487 13.7739 10.7144L15.546 8.79438L17.3182 10.7144C17.4421 10.8487 17.6015 10.9454 17.7779 10.9934C17.9543 11.0413 18.1407 11.0386 18.3156 10.9855C18.4906 10.9325 18.647 10.8312 18.767 10.6933C18.8871 10.5554 18.9658 10.3864 18.9943 10.2058L19.076 9.69081C19.4792 7.12707 19.5102 4.51855 19.1681 1.94595H20.7352C20.8212 1.94595 20.9037 1.98012 20.9646 2.04094C21.0254 2.10176 21.0596 2.18425 21.0596 2.27027ZM17.204 1.94595H13.8881C13.6066 3.90963 13.5596 5.89981 13.748 7.87459L14.5925 6.9587C14.714 6.82702 14.8615 6.72193 15.0256 6.65005C15.1897 6.57817 15.3669 6.54106 15.546 6.54106C15.7252 6.54106 15.9024 6.57817 16.0665 6.65005C16.2306 6.72193 16.3781 6.82702 16.4996 6.9587L17.3441 7.87459C17.5325 5.89981 17.4855 3.90963 17.204 1.94595ZM6.46496 16.2162H21.0596V21.7297C21.0596 21.8157 21.0254 21.8982 20.9646 21.9591C20.9037 22.0199 20.8212 22.0541 20.7352 22.0541H6.46496C5.69082 22.0541 4.94838 21.7465 4.40098 21.1991C3.85357 20.6517 3.54604 19.9093 3.54604 19.1351C3.54604 18.361 3.85357 17.6186 4.40098 17.0711C4.94838 16.5237 5.69082 16.2162 6.46496 16.2162Z" fill="white"/>
</svg>
