<svg width="25" height="24" viewBox="0 0 25 24" fill="none" xmlns="http://www.w3.org/2000/svg">
<path d="M7.29027 9.19118L8.2044 9.19122V11.0912L7.29027 11.0912V9.19118Z" fill="white"/>
<path fill-rule="evenodd" clip-rule="evenodd" d="M21.9522 11.0553C21.9522 13.5436 21.2022 15.3246 20.4214 16.4957C20.0337 17.0773 19.6424 17.5027 19.3406 17.7877C19.2949 17.8309 19.2512 17.8709 19.2098 17.9078V23.9498H7.25439V17.9896C7.20066 17.9537 7.14371 17.9146 7.08396 17.8723C6.69466 17.5966 6.18034 17.1784 5.66611 16.5999C4.63056 15.4349 3.5979 13.6188 3.5979 11.0553V8.31297C3.5979 7.11228 4.35962 6.08946 5.42616 5.70139V2.82823C5.42616 1.29388 6.67006 0.0499792 8.20441 0.0499792C8.90448 0.0499792 9.54408 0.308929 10.0327 0.736267C10.5212 0.308929 11.1608 0.0499792 11.8609 0.0499792C12.5609 0.0499792 13.2005 0.308897 13.6891 0.736188C14.1777 0.308793 14.8173 0.0498047 15.5174 0.0498047C16.7847 0.0498047 17.8538 0.898338 18.1876 2.05822C18.4941 1.9418 18.8266 1.87806 19.1739 1.87806C20.7083 1.87806 21.9522 3.12195 21.9522 4.65631V11.0553ZM15.5174 9.26281C14.8173 9.26281 14.1777 9.00385 13.6892 8.57651C13.4012 8.82841 13.0607 9.0218 12.6863 9.13813C12.4933 9.75943 12.0881 10.2873 11.5555 10.637C12.3338 11.4619 12.8109 12.5741 12.8109 13.7977H10.9109C10.9109 12.303 9.69916 11.0912 8.2044 11.0912V9.19122H10.0327C10.5177 9.19122 10.9109 8.79798 10.9109 8.31297C10.9109 7.82796 10.5177 7.43472 10.0327 7.43472H6.37615C5.89114 7.43472 5.4979 7.82796 5.4979 8.31297V11.0553C5.4979 13.0624 6.29349 14.4458 7.08619 15.3376C7.48609 15.7875 7.88589 16.112 8.18219 16.3219C8.29001 16.3982 8.38325 16.4588 8.45666 16.5042H17.9289C17.9615 16.4755 17.9974 16.4429 18.036 16.4064C18.2483 16.2059 18.5427 15.8885 18.8405 15.4417C19.431 14.5561 20.0522 13.1376 20.0522 11.0553V9.12113C19.7761 9.21304 19.4808 9.26281 19.1739 9.26281C18.4738 9.26281 17.8342 9.00386 17.3457 8.57652C16.8571 9.00386 16.2175 9.26281 15.5174 9.26281ZM9.15439 18.4042H17.3098V22.0498H9.15439V18.4042ZM20.0522 6.48466L20.0519 6.50572C20.0515 6.52129 20.0508 6.53677 20.0496 6.55213C20.0151 7.00562 19.6362 7.36291 19.1739 7.36291C18.6904 7.36291 18.298 6.97204 18.2957 6.48905L18.2957 4.65134C18.2958 4.63504 18.2963 4.61884 18.2973 4.60275C18.3249 4.14268 18.7069 3.77806 19.1739 3.77806C19.6589 3.77806 20.0522 4.1713 20.0522 4.65631V6.48466ZM12.7392 6.48456C12.7392 6.70861 12.6552 6.91307 12.5171 7.06823C12.2008 6.43804 11.6517 5.94483 10.9827 5.70139L10.9827 2.82491C10.9845 2.34142 11.377 1.94998 11.8609 1.94998C12.3459 1.94998 12.7392 2.34322 12.7392 2.82823L12.7392 6.48456ZM9.08266 5.53472H7.32616V2.82823C7.32616 2.34322 7.7194 1.94998 8.20441 1.94998C8.68829 1.94998 9.08081 2.34137 9.08266 2.82481L9.08266 5.53472ZM16.3957 6.48456L16.3957 4.65631L16.3957 4.64933V2.82806C16.3957 2.34304 16.0024 1.9498 15.5174 1.9498C15.0504 1.9498 14.6685 2.31443 14.6408 2.7745C14.6397 2.79225 14.6392 2.81014 14.6392 2.82815V6.48465C14.6392 6.96967 15.0324 7.36291 15.5174 7.36291C15.9797 7.36291 16.3586 7.00562 16.3931 6.55213C16.3943 6.53677 16.3951 6.52129 16.3954 6.50572L16.3957 6.48456Z" fill="white"/>
</svg>
