<svg width="17" height="16" viewBox="0 0 17 16" fill="none" xmlns="http://www.w3.org/2000/svg">
<path d="M4.66031 6.12745L5.26973 6.12748V7.39415L4.66031 7.39412V6.12745Z" fill="#F7AB20"/>
<path fill-rule="evenodd" clip-rule="evenodd" d="M14.4349 7.37019C14.4349 9.02904 13.9349 10.2164 13.4144 10.9971C13.1559 11.3849 12.8951 11.6684 12.6938 11.8585C12.6634 11.8873 12.6342 11.9139 12.6066 11.9385V15.9665H4.63639V11.9931C4.60057 11.9691 4.5626 11.9431 4.52277 11.9149C4.26324 11.731 3.92035 11.4522 3.57754 11.0666C2.88717 10.2899 2.19873 9.07917 2.19873 7.37019V5.54198C2.19873 4.74152 2.70654 4.05964 3.41757 3.80092V1.88549C3.41757 0.862585 4.24684 0.0333195 5.26974 0.0333195C5.73645 0.0333195 6.16285 0.205953 6.48857 0.490845C6.81429 0.205953 7.24069 0.0333195 7.7074 0.0333195C8.17409 0.0333195 8.60046 0.205931 8.92617 0.490792C9.2519 0.205862 9.67833 0.0332031 10.1451 0.0332031C10.9899 0.0332031 11.7027 0.598892 11.9252 1.37215C12.1295 1.29453 12.3512 1.25204 12.5827 1.25204C13.6056 1.25204 14.4349 2.0813 14.4349 3.1042V7.37019ZM10.1451 6.17521C9.67836 6.17521 9.25195 6.00257 8.92623 5.71767C8.73424 5.88561 8.50726 6.01453 8.25766 6.09209C8.129 6.50628 7.85889 6.8582 7.50381 7.09135C8.02268 7.64128 8.34073 8.38274 8.34073 9.19848H7.07407C7.07407 8.20198 6.26624 7.39415 5.26973 7.39415V6.12748H6.48857C6.81191 6.12748 7.07407 5.86532 7.07407 5.54198C7.07407 5.21864 6.81191 4.95648 6.48857 4.95648H4.0509C3.72756 4.95648 3.4654 5.21864 3.4654 5.54198V7.37019C3.4654 8.7083 3.99579 9.63052 4.52426 10.225C4.79086 10.525 5.05739 10.7413 5.25492 10.8812C5.3268 10.9322 5.38897 10.9725 5.4379 11.0028H11.7527C11.7745 10.9836 11.7984 10.9619 11.8241 10.9376C11.9657 10.8039 12.1619 10.5923 12.3605 10.2945C12.7541 9.70405 13.1682 8.75842 13.1682 7.37019V6.08075C12.9842 6.14203 12.7873 6.17521 12.5827 6.17521C12.116 6.17521 11.6896 6.00257 11.3639 5.71768C11.0382 6.00257 10.6118 6.17521 10.1451 6.17521ZM5.90306 12.2694H11.34V14.6999H5.90306V12.2694ZM13.1682 4.32311L13.1681 4.33715C13.1678 4.34753 13.1673 4.35784 13.1665 4.36808C13.1436 4.67041 12.8909 4.9086 12.5827 4.9086C12.2604 4.9086 11.9988 4.64803 11.9972 4.32603L11.9972 3.10089C11.9973 3.09002 11.9977 3.07922 11.9983 3.0685C12.0168 2.76178 12.2714 2.5187 12.5827 2.5187C12.9061 2.5187 13.1682 2.78086 13.1682 3.1042V4.32311ZM8.2929 4.32304C8.2929 4.4724 8.23696 4.60871 8.14488 4.71216C7.93398 4.29203 7.56792 3.96322 7.12191 3.80093L7.12191 1.88327C7.1231 1.56095 7.3848 1.29999 7.7074 1.29999C8.03074 1.29999 8.2929 1.56215 8.2929 1.88549L8.2929 4.32304ZM5.85523 3.68981H4.68424V1.88549C4.68424 1.56215 4.9464 1.29999 5.26974 1.29999C5.59232 1.29999 5.85401 1.56091 5.85524 1.88321L5.85523 3.68981ZM10.7306 4.32304L10.7306 3.1042L10.7306 3.09955V1.88537C10.7306 1.56203 10.4684 1.29987 10.1451 1.29987C9.83372 1.29987 9.5791 1.54295 9.56065 1.84967C9.55993 1.8615 9.55957 1.87343 9.55957 1.88544V4.3231C9.55957 4.64644 9.82173 4.9086 10.1451 4.9086C10.4533 4.9086 10.7059 4.67041 10.7289 4.36808C10.7296 4.35784 10.7302 4.34753 10.7304 4.33715L10.7306 4.32304Z" fill="#F7AB20"/>
</svg>
