<svg width="24" height="24" viewBox="0 0 24 24" fill="none" xmlns="http://www.w3.org/2000/svg">
<rect width="24" height="24" rx="5" fill="white" fill-opacity="0.2"/>
<path d="M15.1763 5.64746C16.9306 5.64746 18.353 7.0699 18.353 8.82422V15.1768C18.353 16.9311 16.9306 18.3535 15.1763 18.3535H8.82373C7.06941 18.3535 5.64697 16.9311 5.64697 15.1768V8.82422C5.64697 7.0699 7.06941 5.64746 8.82373 5.64746H15.1763ZM12.5464 8.46875C11.8097 8.35958 11.057 8.48512 10.396 8.82812C9.73494 9.17114 9.19865 9.71467 8.86377 10.3799C8.52913 11.045 8.41256 11.7991 8.53076 12.5342C8.64909 13.2694 8.99646 13.949 9.52295 14.4756C10.0495 15.0022 10.7291 15.3494 11.4644 15.4678C12.1996 15.5861 12.9534 15.4695 13.6187 15.1348C14.284 14.7999 14.8274 14.2637 15.1704 13.6025C15.5134 12.9415 15.639 12.1888 15.5298 11.4521C15.4183 10.7008 15.0679 10.0049 14.5308 9.46777C13.9936 8.9307 13.2978 8.58017 12.5464 8.46875ZM11.3169 10.6035C11.6046 10.4543 11.9328 10.3998 12.2534 10.4473C12.5802 10.4958 12.883 10.6483 13.1167 10.8818C13.3503 11.1155 13.5027 11.4183 13.5513 11.7451C13.5988 12.0657 13.5442 12.394 13.395 12.6816C13.2458 12.9691 13.0095 13.2019 12.7202 13.3477C12.4307 13.4934 12.1018 13.5447 11.7817 13.4932C11.462 13.4416 11.1661 13.2906 10.937 13.0615C10.7081 12.8325 10.5569 12.5365 10.5054 12.2168C10.454 11.8969 10.5042 11.5678 10.6499 11.2783C10.7956 10.989 11.0294 10.7528 11.3169 10.6035ZM15.4937 7.50586C14.9417 7.50608 14.4939 7.95388 14.4937 8.50586C14.4937 9.05801 14.9416 9.50564 15.4937 9.50586H15.5005C16.0528 9.50586 16.5005 9.05814 16.5005 8.50586C16.5003 7.95374 16.0527 7.50586 15.5005 7.50586H15.4937Z" fill="black" fill-opacity="0.6"/>
</svg>
