<svg width="24" height="24" viewBox="0 0 24 24" fill="none" xmlns="http://www.w3.org/2000/svg">
<rect width="24" height="24" rx="5" fill="white" fill-opacity="0.2"/>
<path d="M18.2898 8.56069C18.1374 7.99395 17.6905 7.54719 17.1239 7.39458C16.0887 7.11133 11.9477 7.11133 11.9477 7.11133C11.9477 7.11133 7.80686 7.11133 6.77163 7.38384C6.21587 7.53629 5.75813 7.99403 5.60568 8.56069C5.33325 9.59583 5.33325 11.7426 5.33325 11.7426C5.33325 11.7426 5.33325 13.9002 5.60568 14.9245C5.75829 15.4911 6.20497 15.9379 6.77171 16.0905C7.81776 16.3738 11.9478 16.3738 11.9478 16.3738C11.9478 16.3738 16.0887 16.3738 17.1239 16.1013C17.6906 15.9488 18.1374 15.502 18.29 14.9354C18.5623 13.9002 18.5623 11.7535 18.5623 11.7535C18.5623 11.7535 18.5732 9.59583 18.2898 8.56069V8.56069ZM10.6293 13.7258V9.75934L14.0727 11.7426L10.6293 13.7258Z" fill="black" fill-opacity="0.6"/>
</svg>
