<svg width="35" height="38" viewBox="0 0 35 38" fill="none" xmlns="http://www.w3.org/2000/svg">
<path d="M31.184 6.12788C28.2826 10.8212 26.448 15.5572 25.68 20.3359C26.7893 20.5919 27.6 20.8905 28.112 21.2319C28.88 21.6585 29.52 22.1279 30.032 22.6399C30.544 23.1519 30.9706 23.7065 31.312 24.3039C31.6533 25.2425 31.824 26.3519 31.824 27.6319C31.824 29.5945 31.2693 31.3012 30.16 32.7519C29.136 34.1172 27.7706 34.7999 26.064 34.7999C24.016 34.7999 22.224 33.7759 20.688 31.7279C19.664 29.9359 19.152 27.7599 19.152 25.1999C19.152 24.5172 19.1946 23.8772 19.28 23.2799C19.3653 22.6825 19.4933 22.0425 19.664 21.3599C19.8346 20.5065 20.0053 19.8665 20.176 19.4399C20.688 17.9039 21.2853 16.3679 21.968 14.8319C22.736 13.2959 23.5893 11.8025 24.528 10.3519C25.296 9.15721 26.064 8.09054 26.832 7.15187C27.6853 6.12787 28.5813 5.14654 29.52 4.20787C29.8613 3.95187 30.16 3.73854 30.416 3.56787C30.7573 3.31187 31.0986 3.05588 31.44 2.79987C31.5253 2.79987 31.568 2.79987 31.568 2.79987C31.6533 2.71454 31.7386 2.67188 31.824 2.67188C32.5066 2.67188 32.848 3.05588 32.848 3.82388C32.848 3.99454 32.8053 4.12254 32.72 4.20787L31.184 6.12788ZM14.928 4.20787C14.672 4.5492 14.416 4.89054 14.16 5.23187C13.904 5.48787 13.6906 5.78654 13.52 6.12788C10.448 10.6505 8.52798 15.3865 7.75998 20.3359C8.78398 20.5919 9.63731 20.8905 10.32 21.2319C11.7706 21.9999 12.7946 23.0239 13.392 24.3039C13.5626 24.8159 13.7333 25.3705 13.904 25.9679C14.0746 26.4799 14.16 27.0345 14.16 27.6319C14.16 29.5945 13.5626 31.3012 12.368 32.7519C11.2586 34.1172 9.89331 34.7999 8.27198 34.7999C5.96798 34.7999 4.21864 33.7759 3.02398 31.7279C1.99998 29.9359 1.48798 27.7599 1.48798 25.1999C1.48798 23.9199 1.61598 22.6399 1.87198 21.3599C2.04264 20.5065 2.21331 19.8665 2.38398 19.4399C2.89598 17.9039 3.49331 16.3679 4.17598 14.8319C4.94398 13.2959 5.79731 11.8025 6.73598 10.3519C8.10131 8.04787 9.76531 5.99987 11.728 4.20787C12.0693 3.95187 12.368 3.73854 12.624 3.56787C12.9653 3.31187 13.3066 3.05588 13.648 2.79987C13.7333 2.79987 13.776 2.79987 13.776 2.79987C13.776 2.71454 13.8186 2.67188 13.904 2.67188C14.16 2.67188 14.416 2.79987 14.672 3.05587C14.928 3.22654 15.056 3.48254 15.056 3.82388C15.056 3.99454 15.0133 4.12254 14.928 4.20787Z" fill="black" fill-opacity="0.65"/>
</svg>
