<svg width="24" height="24" viewBox="0 0 24 24" fill="none" xmlns="http://www.w3.org/2000/svg">
<rect width="24" height="24" rx="5" fill="white" fill-opacity="0.2"/>
<path d="M19.0588 6.35899C18.4443 6.79245 17.7639 7.12398 17.0438 7.34081C16.6574 6.89643 16.1437 6.58147 15.5724 6.43852C15.0011 6.29557 14.3997 6.33152 13.8495 6.54153C13.2992 6.75153 12.8268 7.12545 12.496 7.61271C12.1652 8.09997 11.9921 8.67707 12 9.26594V9.90765C10.8723 9.9369 9.75481 9.68679 8.74716 9.1796C7.7395 8.67241 6.87292 7.92389 6.22458 7.0007C6.22458 7.0007 3.65774 12.7761 9.43314 15.3429C8.11155 16.24 6.5372 16.6899 4.94116 16.6264C10.7166 19.8349 17.7754 16.6264 17.7754 9.24669C17.7754 9.06701 17.7561 8.88733 17.7241 8.71407C18.379 8.06819 18.8412 7.25271 19.0588 6.35899V6.35899Z" fill="black" fill-opacity="0.6"/>
</svg>
