<svg width="16" height="16" viewBox="0 0 16 16" fill="none" xmlns="http://www.w3.org/2000/svg">
<path d="M8.00052 6.21666C9.81789 6.21666 11.2912 7.68998 11.2912 9.50735C11.2912 11.3248 9.81789 12.7981 8.00052 12.7981C6.18309 12.7981 4.70979 11.3248 4.70979 9.50735C4.70979 7.68998 6.18309 6.21666 8.00052 6.21666ZM8.00052 7.45066C6.86465 7.45066 5.9438 8.37148 5.9438 9.50735C5.9438 10.6432 6.86465 11.564 8.00052 11.564C9.13639 11.564 10.0572 10.6432 10.0572 9.50735C10.0572 8.37148 9.13639 7.45066 8.00052 7.45066ZM8.00052 3.3335C11.7959 3.3335 15.0723 5.92493 15.9814 9.55655C16.0641 9.8871 15.8632 10.2222 15.5327 10.3049C15.2021 10.3876 14.8671 10.1868 14.7843 9.85617C14.0119 6.7706 11.2265 4.56751 8.00052 4.56751C4.77309 4.56751 1.98682 6.7725 1.21577 9.85995C1.13321 10.1905 0.798263 10.3916 0.467654 10.309C0.137045 10.2265 -0.0640332 9.89154 0.0185305 9.56091C0.926016 5.92716 4.20343 3.3335 8.00052 3.3335Z" fill="#666666"/>
</svg>
