<svg width="16" height="16" viewBox="0 0 16 16" fill="none" xmlns="http://www.w3.org/2000/svg">
<g clip-path="url(#clip0_2_6328)">
<mask id="path-1-inside-1_2_6328" fill="white">
<path d="M3.73335 15.0669H1.33334C0.6 15.0669 0 14.4669 0 13.7335V8.40017C0 7.66682 0.6 7.06685 1.33334 7.06685H3.73335"/>
</mask>
<path d="M3.73335 13.5669C4.56177 13.5669 5.23335 14.2385 5.23335 15.0669C5.23335 15.8953 4.56177 16.5669 3.73335 16.5669V13.5669ZM3.73335 5.56685C4.56177 5.56685 5.23335 6.23843 5.23335 7.06685C5.23335 7.89528 4.56177 8.56685 3.73335 8.56685V5.56685ZM3.73335 15.0669V16.5669H1.33334V15.0669V13.5669H3.73335V15.0669ZM1.33334 15.0669V16.5669C-0.228458 16.5669 -1.5 15.2953 -1.5 13.7335H0H1.5C1.5 13.683 1.47798 13.6402 1.45234 13.6146C1.42669 13.5889 1.38386 13.5669 1.33334 13.5669V15.0669ZM0 13.7335H-1.5V8.40017H0H1.5V13.7335H0ZM0 8.40017H-1.5C-1.5 6.83836 -0.228385 5.56685 1.33334 5.56685V7.06685V8.56685C1.38381 8.56685 1.42664 8.54486 1.45231 8.51918C1.47799 8.49351 1.5 8.45066 1.5 8.40017H0ZM1.33334 7.06685V5.56685H3.73335V7.06685V8.56685H1.33334V7.06685Z" fill="#666666" mask="url(#path-1-inside-1_2_6328)"/>
<path d="M6.61719 4.3999C6.61719 4.52751 6.58451 4.6527 6.52344 4.76318L6.45215 4.86865L4.4834 7.33057V14.3169H12C12.201 14.3169 12.4772 14.2393 12.752 14.0776C12.9578 13.9565 13.1228 13.8122 13.2334 13.6733L13.3252 13.5366L14.6973 11.0679C14.8344 10.821 14.9764 10.4449 15.084 10.0298C15.1916 9.61436 15.25 9.21559 15.25 8.93311V7.3335L15.2383 7.21729C15.1835 6.95278 14.9463 6.75062 14.667 6.75049H9.59961C9.18571 6.75025 8.84979 6.4144 8.84961 6.00049V2.00049C8.84961 1.6813 8.58568 1.4165 8.2666 1.4165H7.2002C6.88109 1.4165 6.61719 1.68133 6.61719 2.00049V4.3999Z" stroke="#666666" stroke-width="1.5" stroke-miterlimit="10" stroke-linecap="round" stroke-linejoin="round"/>
</g>
<defs>
<clipPath id="clip0_2_6328">
<rect width="16" height="16" fill="white"/>
</clipPath>
</defs>
</svg>
