<svg width="24" height="24" viewBox="0 0 24 24" fill="none" xmlns="http://www.w3.org/2000/svg">
<path fill-rule="evenodd" clip-rule="evenodd" d="M1 6.16216C1 4.52785 1.64923 2.96049 2.80486 1.80486C3.96049 0.649226 5.52785 0 7.16216 0H20.1351C21.3896 0 22.4054 1.01578 22.4054 2.27027V21.7297C22.4054 22.3318 22.1662 22.9093 21.7405 23.3351C21.3147 23.7608 20.7372 24 20.1351 24H5.86486C4.57462 24 3.33722 23.4875 2.42489 22.5751C1.51255 21.6628 1 20.4254 1 19.1351V6.16216ZM20.4595 2.27027V14.2703H5.86486C4.76995 14.2703 3.75935 14.6322 2.94595 15.2432V6.16216C2.94595 5.04395 3.39015 3.97154 4.18085 3.18085C4.97154 2.39015 6.04395 1.94595 7.16216 1.94595H11.3239C10.9819 4.51856 11.0129 7.12706 11.416 9.69081L11.4977 10.2058C11.5262 10.3864 11.6049 10.5554 11.7249 10.6933C11.845 10.8312 12.0014 10.9325 12.1764 10.9855C12.3513 11.0386 12.5377 11.0413 12.7141 10.9934C12.8905 10.9454 13.0498 10.8487 13.1738 10.7144L14.9459 8.79438L16.7181 10.7144C16.842 10.8487 17.0014 10.9454 17.1778 10.9934C17.3542 11.0413 17.5406 11.0386 17.7155 10.9855C17.8905 10.9325 18.0469 10.8312 18.1669 10.6933C18.287 10.5554 18.3657 10.3864 18.3942 10.2058L18.4759 9.69081C18.8791 7.12707 18.9101 4.51855 18.568 1.94595H20.1351C20.2212 1.94595 20.3036 1.98012 20.3645 2.04094C20.4253 2.10176 20.4595 2.18425 20.4595 2.27027ZM16.6039 1.94595H13.288C13.0065 3.90963 12.9595 5.89981 13.1479 7.87459L13.9924 6.9587C14.1139 6.82702 14.2614 6.72193 14.4255 6.65005C14.5896 6.57817 14.7668 6.54106 14.9459 6.54106C15.1251 6.54106 15.3023 6.57817 15.4664 6.65005C15.6305 6.72193 15.778 6.82702 15.8995 6.9587L16.744 7.87459C16.9324 5.89981 16.8854 3.90963 16.6039 1.94595ZM5.86486 16.2162H20.4595V21.7297C20.4595 21.8157 20.4253 21.8982 20.3645 21.9591C20.3036 22.0199 20.2212 22.0541 20.1351 22.0541H5.86486C5.09072 22.0541 4.34828 21.7465 3.80088 21.1991C3.25347 20.6517 2.94595 19.9093 2.94595 19.1351C2.94595 18.361 3.25347 17.6186 3.80088 17.0711C4.34828 16.5237 5.09072 16.2162 5.86486 16.2162Z" fill="black" fill-opacity="0.65"/>
</svg>
