<svg width="24" height="24" viewBox="0 0 24 24" fill="none" xmlns="http://www.w3.org/2000/svg">
<path fill-rule="evenodd" clip-rule="evenodd" d="M3.06452 1.06452C3.65014 0.478899 4.4444 0.149902 5.27259 0.149902H18.3634C19.1915 0.149902 19.9858 0.478899 20.5714 1.06452C21.1571 1.65013 21.486 2.4444 21.486 3.27259V22.9087C21.4861 23.0767 21.4411 23.2416 21.3558 23.3863C21.2706 23.531 21.1482 23.6503 21.0013 23.7317C20.8544 23.8131 20.6884 23.8537 20.5205 23.8493C20.3526 23.8449 20.1889 23.7956 20.0465 23.7066L11.818 18.5635L3.58941 23.7066C3.44699 23.7958 3.28331 23.8451 3.11537 23.8496C2.94743 23.854 2.78136 23.8135 2.6344 23.732C2.48752 23.6506 2.36513 23.5313 2.27993 23.3865C2.19472 23.2417 2.14982 23.0767 2.1499 22.9087V3.27259C2.1499 2.4444 2.4789 1.65013 3.06452 1.06452ZM5.27259 2.0317C4.94349 2.0317 4.62786 2.16243 4.39515 2.39515C4.16243 2.62786 4.0317 2.94349 4.0317 3.27259V21.2158L11.3193 16.6607C11.4688 16.5673 11.6416 16.5177 11.818 16.5177C11.9943 16.5177 12.1671 16.5673 12.3167 16.6607L19.6043 21.2158V3.27259C19.6043 2.94349 19.4735 2.62786 19.2408 2.39515C19.0081 2.16243 18.6925 2.0317 18.3634 2.0317H5.27259Z" fill="#666666"/>
</svg>
