<svg width="24" height="24" viewBox="0 0 24 24" fill="none" xmlns="http://www.w3.org/2000/svg">
<g clip-path="url(#clip0_2_11237)">
<path fill-rule="evenodd" clip-rule="evenodd" d="M3.52867 1.71426C3.52867 0.824077 4.25317 0.0999756 5.14295 0.0999756H18.8572C19.747 0.0999756 20.4715 0.824077 20.4715 1.71426V3.52855H22.2858C23.1756 3.52855 23.9001 4.25265 23.9001 5.14283V9.42855C23.9001 11.7362 22.0221 13.6143 19.7144 13.6143H18.7911L18.7611 13.6541C17.3733 15.4952 15.2613 16.7591 12.8473 16.9998L12.7572 17.0088V18.9571H15.4287C16.7914 18.9571 17.9001 20.0658 17.9001 21.4285V23.1428C17.9001 23.561 17.5615 23.9 17.143 23.9H6.85724C6.43872 23.9 6.1001 23.561 6.1001 23.1428V21.4285C6.1001 20.0658 7.20883 18.9571 8.57153 18.9571H11.243V17.0088L11.1529 16.9998C8.7389 16.7591 6.6269 15.4952 5.2391 13.6541L5.20909 13.6143H4.28581C1.97811 13.6143 0.100098 11.7362 0.100098 9.42855V5.14283C0.100098 4.25265 0.824596 3.52855 1.71438 3.52855H3.52867V1.71426ZM18.9572 1.61426H5.04295V8.5714C5.04295 12.4077 8.1638 15.5285 12.0001 15.5285C15.8364 15.5285 18.9572 12.4077 18.9572 8.5714V1.61426ZM3.52867 5.04283H1.61438V9.42855C1.61438 10.8514 2.73466 12.0062 4.13683 12.0852L4.29929 12.0944L4.23407 11.9453C3.76863 10.8814 3.52846 9.73267 3.52867 8.5714V5.04283ZM22.3858 5.04283H20.4715V8.5714C20.4717 9.73266 20.2316 10.8814 19.7663 11.9453L19.7011 12.0944L19.8636 12.0852C21.2655 12.0062 22.3858 10.8514 22.3858 9.42855V5.04283ZM8.57153 20.4714C8.04334 20.4714 7.61438 20.9009 7.61438 21.4285V22.3857H16.3858V21.4285C16.3858 20.9009 15.9569 20.4714 15.4287 20.4714H8.57153Z" fill="black" fill-opacity="0.65"/>
</g>
<defs>
<clipPath id="clip0_2_11237">
<rect width="24" height="24" fill="white"/>
</clipPath>
</defs>
</svg>
