<svg width="24" height="24" viewBox="0 0 24 24" fill="none" xmlns="http://www.w3.org/2000/svg">
<path fill-rule="evenodd" clip-rule="evenodd" d="M16.0457 2.69995C13.0088 2.69995 9.27034 3.6139 6.27435 5.08297C2.7652 6.80359 0.699951 9.04665 0.699951 11.455C0.699951 13.5786 2.12646 15.6053 4.60229 17.2278V17.4201C4.60229 18.3531 4.23958 19.2288 3.57986 19.8885L1.95742 21.5109H4.2519C6.10188 21.5109 7.82337 20.6854 8.98671 19.2721C10.8782 19.871 12.9382 20.2101 14.7449 20.2101C17.6948 20.2101 19.9922 19.3474 21.5184 17.5987C22.8446 16.0794 23.5 14.0012 23.5 11.455C23.5 9.47916 23.3625 7.15015 22.2523 5.42252C21.0592 3.56563 18.9923 2.69995 16.0457 2.69995ZM7.1112 6.78962C9.86677 5.43849 13.2959 4.60073 16.0457 4.60073C18.4441 4.60073 19.8619 5.21861 20.6532 6.45007C21.0595 7.08221 21.2986 7.88048 21.4342 8.75679C21.5696 9.63144 21.5992 10.5644 21.5992 11.455C21.5992 13.0574 21.293 14.769 20.3006 16.0745C19.32 17.3646 17.6297 18.3093 14.7449 18.3093C12.9395 18.3093 10.8249 17.9255 8.95037 17.2545L8.23713 16.9991L7.82923 17.6375C7.42182 18.2749 6.86934 18.7791 6.23146 19.1181C6.41032 18.5771 6.50308 18.0054 6.50308 17.4201V16.1673L6.04455 15.8899C3.75887 14.5075 2.60073 12.9199 2.60073 11.455C2.60073 10.7203 2.97491 9.92124 3.74269 9.11138C4.50867 8.30342 5.64534 7.50836 7.1112 6.78962Z" fill="black" fill-opacity="0.65"/>
</svg>
