<svg width="24" height="24" viewBox="0 0 24 24" fill="none" xmlns="http://www.w3.org/2000/svg">
<g clip-path="url(#clip0_2_11231)">
<path fill-rule="evenodd" clip-rule="evenodd" d="M15.2983 12.4413C15.3553 12.7735 15.2187 13.1093 14.946 13.3074C14.6734 13.5055 14.3119 13.5316 14.0135 13.3747L11.9859 12.3087L9.95828 13.3747C9.65995 13.5316 9.29844 13.5055 9.02577 13.3073C8.75309 13.1092 8.61653 12.7735 8.67351 12.4413L9.06079 10.1835L7.42038 8.58445C7.17902 8.34919 7.09216 7.9973 7.19632 7.67675C7.30047 7.35619 7.57758 7.12257 7.91112 7.0741L10.1781 6.7447L11.1919 4.69049C11.3411 4.38825 11.6489 4.1969 11.9859 4.1969C12.323 4.1969 12.6308 4.38825 12.78 4.69049L13.7938 6.7447L16.0607 7.0741C16.3943 7.12257 16.6714 7.35619 16.7755 7.67674C16.8797 7.99729 16.7928 8.34918 16.5515 8.58444L14.9111 10.1835L15.2983 12.4413ZM10.8849 10.024L10.7223 10.9723L11.5739 10.5246C11.8318 10.389 12.14 10.389 12.398 10.5246L13.2496 10.9723L13.087 10.024C13.0377 9.73678 13.1329 9.4437 13.3416 9.24027L14.0306 8.56866L13.0784 8.43031C12.79 8.3884 12.5407 8.20726 12.4117 7.94591L11.9859 7.08316L11.5601 7.94591C11.4312 8.20726 11.1818 8.3884 10.8934 8.43031L9.94129 8.56866L10.6303 9.24027C10.839 9.4437 10.9342 9.73679 10.8849 10.024Z" fill="black" fill-opacity="0.65"/>
<path fill-rule="evenodd" clip-rule="evenodd" d="M11.9859 18.4198C11.6539 18.4198 11.326 18.4022 11.0031 18.3678L8.75294 23.4718C8.61086 23.7941 8.29128 24.0016 7.93908 24.0001C7.58687 23.9987 7.26901 23.7886 7.12958 23.4652L5.96229 20.7574L3.17019 21.7055C2.83755 21.8184 2.4696 21.7241 2.23239 21.465C1.99517 21.2058 1.93356 20.831 2.07535 20.5096L4.62494 14.7305C3.47827 13.1976 2.7992 11.2946 2.7992 9.23301C2.7992 4.16571 6.90588 0.00012207 11.9859 0.00012207C17.066 0.00012207 21.1727 4.16571 21.1727 9.23301C21.1727 11.2946 20.4936 13.1976 19.3469 14.7305L21.8965 20.5096C22.0383 20.831 21.9767 21.2058 21.7395 21.465C21.5023 21.7241 21.1343 21.8184 20.8017 21.7055L18.0096 20.7574L16.8423 23.4652C16.7029 23.7886 16.385 23.9987 16.0328 24.0001C15.6806 24.0016 15.361 23.7941 15.2189 23.4718L12.9688 18.3678C12.6459 18.4022 12.3179 18.4198 11.9859 18.4198ZM5.93589 16.1465C6.88237 16.9754 8.00058 17.6131 9.23017 17.9993L7.95181 20.899L7.26489 19.3056C7.08212 18.8816 6.60425 18.6692 6.16706 18.8176L4.50907 19.3806L5.93589 16.1465ZM14.7417 17.9993L16.0201 20.899L16.707 19.3056C16.8897 18.8816 17.3676 18.6692 17.8048 18.8176L19.4628 19.3806L18.036 16.1465C17.0895 16.9754 15.9713 17.6131 14.7417 17.9993ZM4.57014 9.23301C4.57014 13.3286 7.89031 16.6488 11.9859 16.6488C16.0816 16.6488 19.4017 13.3286 19.4017 9.23301C19.4017 5.13098 16.0752 1.77107 11.9859 1.77107C7.89668 1.77107 4.57014 5.13098 4.57014 9.23301Z" fill="black" fill-opacity="0.65"/>
</g>
<defs>
<clipPath id="clip0_2_11231">
<rect width="24" height="24" fill="white"/>
</clipPath>
</defs>
</svg>
