<svg width="24" height="24" viewBox="0 0 24 24" fill="none" xmlns="http://www.w3.org/2000/svg">
<path d="M6.49022 9.19142L7.40435 9.19146V11.0915L6.49022 11.0914V9.19142Z" fill="black" fill-opacity="0.65"/>
<path fill-rule="evenodd" clip-rule="evenodd" d="M21.1521 11.0555C21.1521 13.5438 20.4021 15.3248 19.6214 16.4959C19.2336 17.0776 18.8424 17.5029 18.5405 17.788C18.4948 17.8312 18.4511 17.8712 18.4097 17.908V23.9501H6.45435V17.9898C6.40062 17.954 6.34366 17.9149 6.28391 17.8726C5.89461 17.5968 5.38029 17.1786 4.86606 16.6001C3.83051 15.4351 2.79785 13.619 2.79785 11.0555V8.31321C2.79785 7.11253 3.55957 6.0897 4.62611 5.70163V2.82847C4.62611 1.29412 5.87001 0.0502234 7.40437 0.0502234C8.10443 0.0502234 8.74404 0.309173 9.23261 0.736511C9.72119 0.309173 10.3608 0.0502234 11.0609 0.0502234C11.7609 0.0502234 12.4004 0.309141 12.889 0.736432C13.3776 0.309037 14.0172 0.0500488 14.7174 0.0500488C15.9846 0.0500488 17.0538 0.898582 17.3876 2.05847C17.6941 1.94204 18.0265 1.8783 18.3739 1.8783C19.9082 1.8783 21.1521 3.1222 21.1521 4.65655V11.0555ZM14.7174 9.26305C14.0173 9.26305 13.3777 9.0041 12.8891 8.57675C12.6011 8.82865 12.2606 9.02204 11.8863 9.13838C11.6933 9.75967 11.2881 10.2875 10.7555 10.6373C11.5338 11.4622 12.0109 12.5743 12.0109 13.798H10.1109C10.1109 12.3032 8.89911 11.0915 7.40435 11.0915V9.19146H9.2326C9.71762 9.19146 10.1109 8.79822 10.1109 8.31321C10.1109 7.8282 9.71762 7.43496 9.2326 7.43496H5.5761C5.09109 7.43496 4.69785 7.8282 4.69785 8.31321V11.0555C4.69785 13.0627 5.49344 14.446 6.28614 15.3378C6.68604 15.7877 7.08584 16.1122 7.38214 16.3221C7.48996 16.3985 7.5832 16.4591 7.65661 16.5044H17.1289C17.1615 16.4757 17.1973 16.4431 17.2359 16.4067C17.4483 16.2061 17.7426 15.8888 18.0405 15.442C18.6309 14.5563 19.2521 13.1379 19.2521 11.0555V9.12137C18.9761 9.21328 18.6808 9.26305 18.3739 9.26305C17.6738 9.26305 17.0342 9.0041 16.5456 8.57676C16.057 9.0041 15.4174 9.26305 14.7174 9.26305ZM8.35435 18.4044H16.5097V22.0501H8.35435V18.4044ZM19.2521 6.48491L19.2519 6.50597C19.2515 6.52154 19.2507 6.53701 19.2496 6.55237C19.2151 7.00586 18.8362 7.36315 18.3739 7.36315C17.8903 7.36315 17.498 6.97228 17.4956 6.48929L17.4956 4.65158C17.4957 4.63528 17.4962 4.61908 17.4972 4.603C17.5249 4.14292 17.9068 3.7783 18.3739 3.7783C18.8589 3.7783 19.2521 4.17154 19.2521 4.65655V6.48491ZM11.9391 6.4848C11.9391 6.70885 11.8552 6.91331 11.7171 7.06848C11.4007 6.43828 10.8516 5.94508 10.1826 5.70164L10.1826 2.82515C10.1844 2.34167 10.577 1.95022 11.0609 1.95022C11.5459 1.95022 11.9391 2.34346 11.9391 2.82847L11.9391 6.4848ZM8.28261 5.53496H6.52611V2.82847C6.52611 2.34346 6.91935 1.95022 7.40437 1.95022C7.88824 1.95022 8.28077 2.34162 8.28261 2.82505L8.28261 5.53496ZM15.5956 6.4848L15.5956 4.65655L15.5956 4.64957V2.8283C15.5956 2.34329 15.2024 1.95005 14.7174 1.95005C14.2503 1.95005 13.8684 2.31467 13.8407 2.77475C13.8397 2.79249 13.8391 2.81038 13.8391 2.8284V6.4849C13.8391 6.96991 14.2324 7.36315 14.7174 7.36315C15.1797 7.36315 15.5586 7.00586 15.5931 6.55237C15.5942 6.53701 15.595 6.52154 15.5954 6.50597L15.5956 6.4848Z" fill="black" fill-opacity="0.65"/>
</svg>
