<svg width="32" height="32" viewBox="0 0 32 32" fill="none" xmlns="http://www.w3.org/2000/svg">
<path d="M21.3945 3.59973C25.323 3.59983 28.0791 4.75399 29.6699 7.22961C31.1502 9.53312 31.333 12.6391 31.333 15.2736C31.333 18.6682 30.4595 21.4392 28.6914 23.465C26.6565 25.7964 23.5931 26.9463 19.6602 26.9464C17.2513 26.9464 14.5043 26.4948 11.9824 25.6964C10.4313 27.5807 8.13558 28.6808 5.66895 28.6808H2.60938L4.77344 26.5177C5.65284 25.6382 6.13672 24.4705 6.13672 23.2267V22.9708C2.83566 20.8076 0.93366 18.1049 0.933594 15.2736C0.933594 12.0625 3.6866 9.07161 8.36523 6.77747C12.3599 4.81871 17.3454 3.59973 21.3945 3.59973ZM21.3945 6.13391C17.7282 6.13391 13.1555 7.25136 9.48145 9.05286C7.527 10.0112 6.01154 11.0713 4.99023 12.1486C3.96653 13.2284 3.46777 14.2939 3.46777 15.2736C3.46785 17.2266 5.01208 19.3434 8.05957 21.1866L8.6709 21.5568V23.2267C8.6709 24.007 8.54697 24.7692 8.30859 25.4904C9.15891 25.0384 9.89534 24.3665 10.4385 23.5167L10.9824 22.6652L11.9336 23.006C14.4329 23.9007 17.253 24.4122 19.6602 24.4122C23.5063 24.4121 25.76 23.1527 27.0674 21.4327C28.3905 19.692 28.7988 17.41 28.7988 15.2736C28.7988 14.0861 28.7596 12.8421 28.5791 11.6759C28.3982 10.5075 28.0787 9.44258 27.5371 8.59973C26.482 6.95817 24.5918 6.13399 21.3945 6.13391ZM17.5264 18.4406C17.9769 18.4406 18.3625 18.6068 18.6826 18.9386C19.0146 19.2587 19.1806 19.6443 19.1807 20.0948C19.1807 20.5454 19.0146 20.9367 18.6826 21.2687C18.3624 21.5889 17.977 21.7491 17.5264 21.7491C17.0759 21.7491 16.6845 21.5888 16.3525 21.2687C16.0326 20.9367 15.8721 20.5453 15.8721 20.0948C15.8721 19.6443 16.0324 19.2587 16.3525 18.9386C16.6845 18.6067 17.0759 18.4406 17.5264 18.4406ZM17.1709 9.33313C17.9891 9.33313 18.7066 9.41615 19.3232 9.58215C19.9518 9.73632 20.4202 9.93859 20.7285 10.1876C20.8944 10.8514 20.9775 11.5093 20.9775 12.1613C20.9775 13.3353 20.6035 14.3914 19.8564 15.3282C19.1213 16.2649 18.3149 16.953 17.4375 17.3917L16.4238 16.1466C17.3014 15.5537 17.8948 14.9307 18.2031 14.2784C18.5232 13.6144 18.6826 12.9026 18.6826 12.1437C17.4139 12.1437 16.3404 12.346 15.4629 12.7491L14.8408 9.67102C15.576 9.44575 16.3527 9.33313 17.1709 9.33313Z" fill="#36AA00"/>
</svg>
