<svg width="32" height="32" viewBox="0 0 32 32" fill="none" xmlns="http://www.w3.org/2000/svg">
<path fill-rule="evenodd" clip-rule="evenodd" d="M21.394 3.59993C17.3449 3.59993 12.3603 4.81853 8.36564 6.77729C3.68677 9.07145 0.933105 12.0622 0.933105 15.2734C0.933105 18.1048 2.83512 20.8071 6.13623 22.9704V23.2268C6.13623 24.4708 5.65262 25.6384 4.77298 26.5179L2.60974 28.6812H5.66904C8.13568 28.6812 10.431 27.5805 11.9821 25.6962C14.5041 26.4946 17.2508 26.9468 19.6597 26.9468C23.5928 26.9468 26.656 25.7965 28.6911 23.465C30.4593 21.4392 31.3331 18.6682 31.3331 15.2734C31.3331 12.6389 31.1499 9.53353 29.6696 7.23002C28.0787 4.75418 25.3229 3.59993 21.394 3.59993ZM9.48143 9.05282C13.1555 7.25132 17.7277 6.13431 21.394 6.13431C24.5919 6.13431 26.4824 6.95814 27.5375 8.6001C28.0791 9.44294 28.398 10.5073 28.5788 11.6757C28.7593 12.8419 28.7987 14.0858 28.7987 15.2734C28.7987 17.4099 28.3905 19.692 27.0673 21.4327C25.7598 23.1528 23.5061 24.4124 19.6597 24.4124C17.2525 24.4124 14.433 23.9007 11.9337 23.006L10.9827 22.6655L10.4388 23.5166C9.8956 24.3666 9.15896 25.0388 8.30845 25.4908C8.54693 24.7695 8.67061 24.0073 8.67061 23.2268V21.5564L8.05923 21.1866C5.01167 19.3433 3.46748 17.2265 3.46748 15.2734C3.46748 14.2937 3.96639 13.2283 4.99009 12.1485C6.0114 11.0712 7.52696 10.0112 9.48143 9.05282Z" fill="#1ECCB0"/>
</svg>
