<svg width="32" height="32" viewBox="0 0 32 32" fill="none" xmlns="http://www.w3.org/2000/svg">
<g clip-path="url(#clip0_153_48178)">
<path fill-rule="evenodd" clip-rule="evenodd" d="M20.3981 16.5884C20.474 17.0314 20.2919 17.479 19.9284 17.7432C19.5648 18.0073 19.0828 18.0421 18.685 17.833L15.9816 16.4117L13.278 17.833C12.8803 18.0421 12.3983 18.0073 12.0347 17.7432C11.6711 17.479 11.489 17.0313 11.565 16.5884L12.0814 13.578L9.89416 11.446C9.57236 11.1323 9.45654 10.6631 9.59542 10.2357C9.73429 9.80828 10.1038 9.49678 10.5485 9.43216L13.5711 8.99296L14.9229 6.25401C15.1217 5.85102 15.5322 5.59588 15.9816 5.59588C16.431 5.59588 16.8414 5.85102 17.0403 6.25401L18.392 8.99296L21.4146 9.43216C21.8594 9.49678 22.2288 9.80828 22.3677 10.2357C22.5066 10.6631 22.3908 11.1323 22.069 11.4459L19.8818 13.578L20.3981 16.5884ZM14.5136 13.3654L14.2967 14.6298L15.4322 14.0328C15.7761 13.852 16.187 13.852 16.531 14.0328L17.6665 14.6298L17.4496 13.3654C17.3839 12.9824 17.5109 12.5916 17.7892 12.3204L18.7078 11.4249L17.4382 11.2404C17.0537 11.1846 16.7213 10.943 16.5493 10.5946L15.9816 9.44423L15.4138 10.5946C15.2419 10.943 14.9094 11.1846 14.5249 11.2404L13.2554 11.4249L14.174 12.3204C14.4523 12.5916 14.5793 12.9824 14.5136 13.3654Z" fill="#C135C5"/>
<path fill-rule="evenodd" clip-rule="evenodd" d="M15.9816 24.5597C15.5389 24.5597 15.1017 24.5363 14.6711 24.4905L11.6709 31.2958C11.4815 31.7255 11.0554 32.0021 10.5858 32.0002C10.1162 31.9982 9.69234 31.7182 9.50643 31.2869L7.95004 27.6766L4.22724 28.9407C3.78372 29.0913 3.29312 28.9654 2.97684 28.62C2.66056 28.2745 2.57841 27.7747 2.76747 27.3462L6.16692 19.6407C4.63802 17.5968 3.73259 15.0595 3.73259 12.3107C3.73259 5.55429 9.20816 0.000183105 15.9816 0.000183105C22.755 0.000183105 28.2306 5.55429 28.2306 12.3107C28.2306 15.0595 27.3251 17.5968 25.7962 19.6407L29.1957 27.3462C29.3847 27.7747 29.3026 28.2745 28.9863 28.62C28.67 28.9654 28.1794 29.0913 27.7359 28.9407L24.0131 27.6766L22.4567 31.2869C22.2708 31.7182 21.847 31.9982 21.3774 32.0002C20.9078 32.0021 20.4817 31.7255 20.2922 31.2958L17.292 24.4905C16.8615 24.5363 16.4243 24.5597 15.9816 24.5597ZM7.91484 21.5286C9.17683 22.6339 10.6678 23.4842 12.3072 23.9991L10.6027 27.8653L9.68685 25.7408C9.44315 25.1755 8.80599 24.8923 8.22307 25.0902L6.01242 25.8408L7.91484 21.5286ZM19.6559 23.9991L21.3604 27.8653L22.2763 25.7408C22.52 25.1755 23.1572 24.8923 23.7401 25.0902L25.9507 25.8408L24.0483 21.5286C22.7863 22.6339 21.2954 23.4842 19.6559 23.9991ZM6.09384 12.3107C6.09384 17.7716 10.5207 22.1985 15.9816 22.1985C21.4424 22.1985 25.8693 17.7716 25.8693 12.3107C25.8693 6.84133 21.4339 2.36145 15.9816 2.36145C10.5292 2.36145 6.09384 6.84133 6.09384 12.3107Z" fill="#C135C5"/>
</g>
<defs>
<clipPath id="clip0_153_48178">
<rect width="32" height="32" fill="white"/>
</clipPath>
</defs>
</svg>
