<svg width="32" height="32" viewBox="0 0 32 32" fill="none" xmlns="http://www.w3.org/2000/svg">
<path fill-rule="evenodd" clip-rule="evenodd" d="M1.33301 8.21622C1.33301 6.03714 2.19864 3.94731 3.73948 2.40647C5.28032 0.865635 7.37015 0 9.54922 0H26.8465C28.5192 0 29.8735 1.35438 29.8735 3.02703V28.973C29.8735 29.7758 29.5546 30.5457 28.987 31.1134C28.4193 31.6811 27.6493 32 26.8465 32H7.81949C6.09917 32 4.44931 31.3166 3.23286 30.1002C2.0164 28.8837 1.33301 27.2338 1.33301 25.5135V8.21622ZM27.279 3.02703V19.027H7.81949C6.3596 19.027 5.01214 19.5096 3.9276 20.3243V8.21622C3.9276 6.72527 4.51988 5.29539 5.57414 4.24113C6.6284 3.18687 8.05828 2.59459 9.54922 2.59459H15.0982C14.6422 6.02474 14.6835 9.50275 15.221 12.9211L15.33 13.6078C15.3679 13.8486 15.4729 14.0738 15.6329 14.2577C15.793 14.4415 16.0016 14.5766 16.2348 14.6474C16.4681 14.7181 16.7166 14.7218 16.9518 14.6578C17.187 14.5939 17.3995 14.465 17.5648 14.2858L19.9276 11.7258L22.2904 14.2858C22.4557 14.465 22.6682 14.5939 22.9034 14.6578C23.1386 14.7218 23.3871 14.7181 23.6204 14.6474C23.8536 14.5766 24.0622 14.4415 24.2223 14.2577C24.3823 14.0738 24.4873 13.8486 24.5252 13.6078L24.6342 12.9211C25.1718 9.50276 25.2131 6.02474 24.757 2.59459H26.8465C26.9612 2.59459 27.0712 2.64015 27.1523 2.72125C27.2334 2.80235 27.279 2.91234 27.279 3.02703ZM22.1382 2.59459H17.717C17.3417 5.21284 17.279 7.86641 17.5302 10.4995L18.6563 9.27827C18.8182 9.1027 19.0148 8.96257 19.2336 8.86673C19.4524 8.77089 19.6887 8.72141 19.9276 8.72141C20.1665 8.72141 20.4028 8.77089 20.6216 8.86673C20.8404 8.96257 21.037 9.1027 21.199 9.27827L22.325 10.4995C22.5762 7.86641 22.5135 5.21284 22.1382 2.59459ZM7.81949 21.6216H27.279V28.973C27.279 29.0877 27.2334 29.1977 27.1523 29.2787C27.0712 29.3598 26.9612 29.4054 26.8465 29.4054H7.81949C6.7873 29.4054 5.79738 28.9954 5.06751 28.2655C4.33764 27.5356 3.9276 26.5457 3.9276 25.5135C3.9276 24.4813 4.33764 23.4914 5.06751 22.7615C5.79738 22.0317 6.7873 21.6216 7.81949 21.6216Z" fill="#0078AD"/>
</svg>
