<svg width="32" height="32" viewBox="0 0 32 32" fill="none" xmlns="http://www.w3.org/2000/svg">
<g clip-path="url(#clip0_153_48193)">
<path fill-rule="evenodd" clip-rule="evenodd" d="M4.70473 2.28568C4.70473 1.09877 5.67073 0.133301 6.85711 0.133301H25.1428C26.3292 0.133301 27.2952 1.09877 27.2952 2.28568V4.70473H29.7143C30.9006 4.70473 31.8666 5.6702 31.8666 6.85711V12.5714C31.8666 15.6483 29.3626 18.1523 26.2857 18.1523H25.0546L25.0146 18.2054C23.1642 20.6603 20.3482 22.3454 17.1296 22.6664L17.0095 22.6784V25.2762H20.5714C22.3883 25.2762 23.8666 26.7545 23.8666 28.5714V30.8571C23.8666 31.4147 23.4151 31.8666 22.8571 31.8666H9.14283C8.58479 31.8666 8.1333 31.4147 8.1333 30.8571V28.5714C8.1333 26.7545 9.61161 25.2762 11.4285 25.2762H14.9904V22.6784L14.8703 22.6664C11.6517 22.3454 8.8357 20.6603 6.9853 18.2054L6.94529 18.1523H5.71425C2.63732 18.1523 0.133301 15.6483 0.133301 12.5714V6.85711C0.133301 5.6702 1.0993 4.70473 2.28568 4.70473H4.70473V2.28568ZM25.2762 2.15235H6.72378V11.4285C6.72378 16.5436 10.8849 20.7047 16 20.7047C21.115 20.7047 25.2762 16.5436 25.2762 11.4285V2.15235ZM4.70473 6.72378H2.15235V12.5714C2.15235 14.4686 3.64605 16.0083 5.51561 16.1137L5.73222 16.1259L5.64527 15.9271C5.02468 14.5086 4.70445 12.9769 4.70473 11.4285V6.72378ZM29.8476 6.72378H27.2952V11.4285C27.2954 12.9769 26.9753 14.5085 26.3549 15.9271L26.268 16.1259L26.4846 16.1137C28.3539 16.0083 29.8476 14.4686 29.8476 12.5714V6.72378ZM11.4285 27.2952C10.7243 27.2952 10.1523 27.8678 10.1523 28.5714V29.8476H21.8476V28.5714C21.8476 27.8678 21.2757 27.2952 20.5714 27.2952H11.4285Z" fill="#AA0023"/>
</g>
<defs>
<clipPath id="clip0_153_48193">
<rect width="32" height="32" fill="white"/>
</clipPath>
</defs>
</svg>
