<svg width="32" height="32" viewBox="0 0 32 32" fill="none" xmlns="http://www.w3.org/2000/svg">
<path d="M8.65363 12.2551L9.87247 12.2552V14.7885L8.65363 14.7885V12.2551Z" fill="#F7AB20"/>
<path fill-rule="evenodd" clip-rule="evenodd" d="M28.2028 14.7406C28.2028 18.0583 27.2028 20.433 26.1618 21.9945C25.6448 22.77 25.1232 23.3371 24.7207 23.7172C24.6598 23.7748 24.6015 23.8281 24.5463 23.8773V31.9333H8.60579V23.9864C8.53415 23.9385 8.45821 23.8864 8.37855 23.83C7.85949 23.4623 7.17372 22.9047 6.48809 22.1334C5.10735 20.5801 3.73047 18.1586 3.73047 14.7406V11.0842C3.73047 9.48329 4.74609 8.11952 6.16815 7.60209V3.77122C6.16815 1.72541 7.82668 0.0668831 9.87249 0.0668831C10.8059 0.0668831 11.6587 0.412149 12.3101 0.981934C12.9616 0.412149 13.8144 0.0668831 14.7478 0.0668831C15.6812 0.0668831 16.5339 0.412107 17.1853 0.981829C17.8368 0.411968 18.6897 0.0666504 19.6232 0.0666504C21.3128 0.0666504 22.7384 1.19803 23.1834 2.74454C23.5921 2.58931 24.0354 2.50432 24.4985 2.50432C26.5443 2.50432 28.2028 4.16285 28.2028 6.20865V14.7406ZM19.6232 12.3507C18.6897 12.3507 17.8369 12.0054 17.1855 11.4356C16.8015 11.7715 16.3475 12.0293 15.8483 12.1844C15.591 13.0128 15.0508 13.7167 14.3406 14.1829C15.3784 15.2828 16.0145 16.7657 16.0145 18.3972H13.4811C13.4811 16.4042 11.8655 14.7885 9.87247 14.7885V12.2552H12.3101C12.9568 12.2552 13.4811 11.7309 13.4811 11.0842C13.4811 10.4375 12.9568 9.9132 12.3101 9.9132H7.4348C6.78812 9.9132 6.2638 10.4375 6.2638 11.0842V14.7406C6.2638 17.4168 7.32459 19.2613 8.38152 20.4503C8.91473 21.0502 9.44779 21.4829 9.84286 21.7627C9.98661 21.8646 10.1109 21.9453 10.2088 22.0058H22.8385C22.8819 21.9675 22.9297 21.9241 22.9813 21.8755C23.2644 21.6081 23.6568 21.1849 24.054 20.5892C24.8412 19.4083 25.6695 17.5171 25.6695 14.7406V12.1617C25.3014 12.2843 24.9077 12.3507 24.4985 12.3507C23.5651 12.3507 22.7123 12.0054 22.0608 11.4356C21.4094 12.0054 20.5566 12.3507 19.6232 12.3507ZM11.1391 24.5391H22.013V29.4H11.1391V24.5391ZM25.6695 8.64646L25.6692 8.67454C25.6687 8.6953 25.6676 8.71593 25.6661 8.73641C25.6201 9.34107 25.1149 9.81745 24.4985 9.81745C23.8537 9.81745 23.3306 9.29629 23.3275 8.65231L23.3275 6.20203C23.3276 6.18029 23.3283 6.15869 23.3296 6.13725C23.3665 5.52381 23.8758 5.03765 24.4985 5.03765C25.1452 5.03765 25.6695 5.56197 25.6695 6.20865V8.64646ZM15.9188 8.64632C15.9188 8.94505 15.8069 9.21767 15.6228 9.42456C15.201 8.5843 14.4689 7.92669 13.5768 7.6021L13.5768 3.76679C13.5792 3.12214 14.1026 2.60022 14.7478 2.60022C15.3945 2.60022 15.9188 3.12454 15.9188 3.77122L15.9188 8.64632ZM11.0435 7.37987H8.70149V3.77122C8.70149 3.12454 9.2258 2.60022 9.87249 2.60022C10.5176 2.60022 11.041 3.12207 11.0435 3.76666L11.0435 7.37987ZM20.7942 8.64632L20.7941 6.20865L20.7942 6.19935V3.77098C20.7942 3.1243 20.2698 2.59998 19.6232 2.59998C19.0005 2.59998 18.4912 3.08614 18.4543 3.69958C18.4529 3.72324 18.4521 3.7471 18.4521 3.77112V8.64645C18.4521 9.29313 18.9765 9.81745 19.6232 9.81745C20.2396 9.81745 20.7448 9.34107 20.7907 8.73641C20.7923 8.71593 20.7933 8.6953 20.7938 8.67454L20.7942 8.64632Z" fill="#F7AB20"/>
</svg>
